<svg width="39" height="44" viewBox="0 0 39 44" fill="none" xmlns="http://www.w3.org/2000/svg">
<g filter="url(#filter0_d_12578_8453)">
<path d="M35.2502 6.61809C34.9024 5.94692 34.3232 5.42455 33.6197 5.14778C28.9322 3.32981 24.3229 1.59466 19.8291 0.114188C19.3727 -0.0380627 18.8793 -0.0380627 18.4229 0.114188C13.9299 1.59075 9.32131 3.32278 4.63459 5.13841C4.0169 5.38407 3.49363 5.8203 3.14084 6.38372C3.16662 6.38763 2.17678 9.47747 2.00881 16.3056C1.9049 23.1251 2.7549 25.1712 2.72678 25.1736C3.18615 26.6728 4.04709 28.1993 5.28147 29.7509C6.66037 31.4837 8.52365 33.2736 10.7737 35.0337C14.5002 37.9579 17.9869 39.7056 18.133 39.7673C18.4429 39.921 18.784 40.0009 19.1299 40.0009C19.4758 40.0009 19.8169 39.921 20.1268 39.7673C20.2737 39.7056 23.7643 37.9525 27.4885 35.029C29.7393 33.2681 31.6033 31.4783 32.983 29.7462C34.3049 28.0845 35.1987 26.454 35.6307 24.8525C35.6135 24.8525 36.2385 22.3439 36.1518 16.6001C36.0416 10.8595 35.2416 6.62122 35.2502 6.61809Z" fill="#2AD352"/>
<path d="M25.4858 18.3337C23.3064 20.624 21.0663 23.022 18.871 25.3889C18.6928 25.582 18.4778 25.7358 18.2392 25.8409C18.0006 25.946 17.7434 26.0001 17.4835 26H17.4747C17.2146 25.997 16.9577 25.9411 16.719 25.8355C16.4803 25.73 16.2647 25.5769 16.0847 25.3853C14.9093 24.1437 13.7256 22.9048 12.5497 21.6895C11.7975 20.914 11.8207 19.693 12.5981 18.9348C13.3755 18.1766 14.6009 18.1724 15.3443 18.9511C16.0431 19.6814 16.7445 20.417 17.4485 21.1578C19.1928 19.2905 20.9438 17.4085 22.6484 15.5801C23.3728 14.8019 24.5838 14.8114 25.372 15.5801C26.1602 16.3487 26.2158 17.5661 25.4858 18.3337Z" fill="white"/>
</g>
<defs>
<filter id="filter0_d_12578_8453" x="0" y="0" width="39" height="44.001" filterUnits="userSpaceOnUse" color-interpolation-filters="sRGB">
<feFlood flood-opacity="0" result="BackgroundImageFix"/>
<feColorMatrix in="SourceAlpha" type="matrix" values="0 0 0 0 0 0 0 0 0 0 0 0 0 0 0 0 0 0 127 0" result="hardAlpha"/>
<feOffset dy="2"/>
<feGaussianBlur stdDeviation="1"/>
<feComposite in2="hardAlpha" operator="out"/>
<feColorMatrix type="matrix" values="0 0 0 0 0 0 0 0 0 0 0 0 0 0 0 0 0 0 0.25 0"/>
<feBlend mode="normal" in2="BackgroundImageFix" result="effect1_dropShadow_12578_8453"/>
<feBlend mode="normal" in="SourceGraphic" in2="effect1_dropShadow_12578_8453" result="shape"/>
</filter>
</defs>
</svg>
