<svg width="39" height="44" viewBox="0 0 39 44" fill="none" xmlns="http://www.w3.org/2000/svg">
<g filter="url(#filter0_d_12578_8503)">
<path d="M35.2502 6.61809C34.9024 5.94692 34.3232 5.42455 33.6197 5.14778C28.9322 3.32981 24.3229 1.59466 19.8291 0.114188C19.3727 -0.0380627 18.8793 -0.0380627 18.4229 0.114188C13.9299 1.59075 9.32131 3.32278 4.63459 5.13841C4.0169 5.38407 3.49363 5.8203 3.14084 6.38372C3.16662 6.38763 2.17678 9.47747 2.00881 16.3056C1.9049 23.1251 2.7549 25.1712 2.72678 25.1736C3.18615 26.6728 4.04709 28.1993 5.28147 29.7509C6.66037 31.4837 8.52365 33.2736 10.7737 35.0337C14.5002 37.9579 17.9869 39.7056 18.133 39.7673C18.4429 39.921 18.784 40.0009 19.1299 40.0009C19.4758 40.0009 19.8169 39.921 20.1268 39.7673C20.2737 39.7056 23.7643 37.9525 27.4885 35.029C29.7393 33.2681 31.6033 31.4783 32.983 29.7462C34.3049 28.0845 35.1987 26.454 35.6307 24.8525C35.6135 24.8525 36.2385 22.3439 36.1518 16.6001C36.0416 10.8595 35.2416 6.62122 35.2502 6.61809Z" fill="#ED421E"/>
<g clip-path="url(#clip0_12578_8503)">
<path d="M21.175 20.0002L26.55 14.6252C27.1531 14.0252 27.1531 13.0533 26.5562 12.4502C25.9562 11.8471 24.9844 11.8471 24.3813 12.4439L24.3781 12.4471L19.0031 17.8221L13.625 12.4502C13.025 11.8502 12.05 11.8502 11.45 12.4502C10.85 13.0502 10.85 14.0252 11.45 14.6252L16.825 20.0002L11.45 25.3752C10.85 25.9752 10.85 26.9502 11.45 27.5502C12.05 28.1502 13.025 28.1502 13.625 27.5502L19 22.1752L24.375 27.5502C24.975 28.1502 25.95 28.1502 26.55 27.5502C27.15 26.9502 27.15 25.9752 26.55 25.3752L21.175 20.0002Z" fill="white"/>
</g>
</g>
<defs>
<filter id="filter0_d_12578_8503" x="0" y="0" width="39" height="44.001" filterUnits="userSpaceOnUse" color-interpolation-filters="sRGB">
<feFlood flood-opacity="0" result="BackgroundImageFix"/>
<feColorMatrix in="SourceAlpha" type="matrix" values="0 0 0 0 0 0 0 0 0 0 0 0 0 0 0 0 0 0 127 0" result="hardAlpha"/>
<feOffset dy="2"/>
<feGaussianBlur stdDeviation="1"/>
<feComposite in2="hardAlpha" operator="out"/>
<feColorMatrix type="matrix" values="0 0 0 0 0 0 0 0 0 0 0 0 0 0 0 0 0 0 0.25 0"/>
<feBlend mode="normal" in2="BackgroundImageFix" result="effect1_dropShadow_12578_8503"/>
<feBlend mode="normal" in="SourceGraphic" in2="effect1_dropShadow_12578_8503" result="shape"/>
</filter>
<clipPath id="clip0_12578_8503">
<rect width="16" height="16" fill="white" transform="translate(11 12)"/>
</clipPath>
</defs>
</svg>
