<svg width="152" height="151" viewBox="0 0 152 151" fill="none" xmlns="http://www.w3.org/2000/svg">
<g opacity="0.3" filter="url(#filter0_bd_12591_23583)">
<circle cx="76" cy="60" r="24" fill="url(#paint0_linear_12591_23583)"/>
</g>
<path d="M73.5 47C72.4062 47 71.5 47.9062 71.5 49V50H68.5V49H66.5V50H64.5C63.4062 50 62.5 50.9062 62.5 52V68C62.5 69.0938 63.4062 70 64.5 70H86.5C87.5938 70 88.5 69.0938 88.5 68V52C88.5 50.9062 87.5938 50 86.5 50H84.5V49H82.5V50H79.5V49C79.5 47.9062 78.5938 47 77.5 47H73.5ZM73.5 49H77.5V50H73.5V49ZM64.5 52H86.5V68H84.5V53H82.5V68H68.5V53H66.5V68H64.5V52Z" fill="white"/>
<defs>
<filter id="filter0_bd_12591_23583" x="-586.15" y="-602.15" width="1324.3" height="1324.3" filterUnits="userSpaceOnUse" color-interpolation-filters="sRGB">
<feFlood flood-opacity="0" result="BackgroundImageFix"/>
<feGaussianBlur in="BackgroundImageFix" stdDeviation="319.075"/>
<feComposite in2="SourceAlpha" operator="in" result="effect1_backgroundBlur_12591_23583"/>
<feColorMatrix in="SourceAlpha" type="matrix" values="0 0 0 0 0 0 0 0 0 0 0 0 0 0 0 0 0 0 127 0" result="hardAlpha"/>
<feOffset dy="15.3156"/>
<feGaussianBlur stdDeviation="25.526"/>
<feColorMatrix type="matrix" values="0 0 0 0 0 0 0 0 0 0 0 0 0 0 0 0 0 0 0.3 0"/>
<feBlend mode="normal" in2="effect1_backgroundBlur_12591_23583" result="effect2_dropShadow_12591_23583"/>
<feBlend mode="normal" in="SourceGraphic" in2="effect2_dropShadow_12591_23583" result="shape"/>
</filter>
<linearGradient id="paint0_linear_12591_23583" x1="130.5" y1="12" x2="57.5" y2="87.5" gradientUnits="userSpaceOnUse">
<stop stop-color="white"/>
<stop offset="1" stop-color="white" stop-opacity="0"/>
</linearGradient>
</defs>
</svg>
